<?xml version="1.0" encoding="UTF-8"?>
<svg version="1.1" viewBox="0 0 500 516.5" xml:space="preserve" xmlns="http://www.w3.org/2000/svg">
<g transform="translate(-70.87,-32.48)">
	<path d="m78.87 499.2h6.24c3.59 0 6.55-2.18 6.55-6.03v-9.98c0-3.85-2.96-5.98-6.55-5.98h-2.55v-11.38h8.42v-3.02h-12.11zm6.24-18.97c1.56 0 2.86 1.09 2.86 2.96v9.98c0 1.92-1.3 3.01-2.86 3.01h-2.55v-15.96h2.55zm20.59-17.68c-3.59 0-6.45 2.18-6.45 6.03v24.9c0 3.85 2.86 5.98 6.45 5.98 3.64 0 6.55-2.13 6.55-5.98v-24.9c0-3.84-2.91-6.03-6.55-6.03zm-2.75 6.03c0-1.87 1.25-2.96 2.76-2.96 1.61 0 2.86 1.09 2.86 2.96v24.9c0 1.87-1.25 2.91-2.86 2.91-1.51 0-2.76-1.04-2.76-2.91zm17.21 30.62h3.69v-17.16h5.67v17.16h3.69v-36.39h-3.69v16.22h-5.67v-16.22h-3.69zm21.14 0h6.39c3.59 0 6.5-2.18 6.5-6.03v-7.38c0-2.7-1.46-4.58-3.59-5.41 2.03-0.83 3.48-2.65 3.48-5.3v-6.24c0-3.85-2.96-6.03-6.55-6.03h-6.24v36.39zm3.7-20.27v-13.1h2.55c1.56 0 2.86 1.09 2.86 3.01v7.12c0 1.87-1.3 2.96-2.86 2.96h-2.55zm2.7 3.01c1.56 0 2.81 1.09 2.81 2.91v8.32c0 1.92-1.25 3.01-2.81 3.01h-2.7v-14.24zm14.22 17.26h3.59v-3.17l5.93-21.37h0.05v24.54h3.59v-36.39h-3.59v3.17l-5.93 21.37h-0.05v-24.54h-3.59zm23.02-6.86c0 2.6-1.09 4.05-2.44 4.05v3.07c3.38 0 6.13-2.6 6.13-7.12v-26.51h4.89v33.38h3.69v-36.39h-12.27zm22.15 0c0 2.6-1.09 4.05-2.44 4.05v3.07c3.38 0 6.13-2.6 6.13-7.12v-26.51h4.89v33.38h3.69v-36.39h-12.27zm20.36 6.86h6.24c3.59 0 6.55-2.18 6.55-6.03v-9.98c0-3.85-2.96-5.98-6.55-5.98h-2.55v-14.4h-3.69zm6.24-18.97c1.56 0 2.86 1.09 2.86 2.96v9.98c0 1.92-1.3 3.01-2.86 3.01h-2.55v-15.96h2.55zm17.85-11.75c0-1.82 1.2-2.86 2.65-2.86 1.51 0 2.7 1.04 2.7 2.86v4.73h3.69v-4.73c0-3.79-2.86-5.93-6.39-5.93-3.54 0-6.34 2.13-6.34 5.93v25.11c0 3.79 2.81 5.87 6.34 5.87s6.39-2.08 6.39-5.87v-4.78h-3.69v4.78c0 1.82-1.2 2.81-2.7 2.81-1.46 0-2.65-0.99-2.65-2.81zm16.81 30.72h3.69v-17.16h1.66l4.57 17.16h3.79l-5.61-18.66 5.46-17.68h-3.79l-4.47 16.17h-1.61v-16.22h-3.69zm21.01 0h3.59v-3.17l5.93-21.37h0.05v24.54h3.59v-36.39h-3.59v3.17l-5.93 21.37h-0.05v-24.54h-3.59zm21.25 0h3.59v-3.17l5.93-21.37h0.05v24.54h3.59v-36.39h-3.59v3.17l-5.93 21.37h-0.05v-24.54h-3.59zm1.4-44.29c0 3.12 2.29 4.94 5.09 4.94 2.86 0 5.2-1.82 5.2-4.94h-2.6c0 1.72-1.14 2.65-2.6 2.65-1.35 0-2.5-0.94-2.5-2.65zm32.29 10.92h4.83v33.38h3.69v-33.38h4.78v-3.02h-13.3zm20.64 33.37h3.69v-14.66h2.55c3.59 0 6.55-2.13 6.55-5.98v-9.72c0-3.85-2.96-6.03-6.55-6.03h-6.24zm3.69-17.67v-15.7h2.55c1.56 0 2.86 1.09 2.86 3.01v9.72c0 1.87-1.3 2.96-2.86 2.96h-2.55zm16.87 17.67h11.85v-3.02h-8.16v-14.14h7.12v-3.02h-7.12v-13.2h8.16v-3.02h-11.85zm19.9 0h1.82c3.28 0 5.36-1.87 5.98-5.09l6.24-31.3h-3.8l-3.69 22.77h-0.1l-3.64-22.77h-3.79l5.09 25.99h1.09l-1.14 5.25c-0.31 1.3-0.99 2.13-2.24 2.13h-1.82zm21.3 0h3.69v-33.38h7.64v-3.02h-11.33zm24.88-36.65c-3.59 0-6.45 2.18-6.45 6.03v24.9c0 3.85 2.86 5.98 6.45 5.98 3.64 0 6.55-2.13 6.55-5.98v-24.9c0-3.84-2.92-6.03-6.55-6.03zm-2.76 6.03c0-1.87 1.25-2.96 2.76-2.96 1.61 0 2.86 1.09 2.86 2.96v24.9c0 1.87-1.25 2.91-2.86 2.91-1.51 0-2.76-1.04-2.76-2.91zm18.82 23.76c0 2.6-1.09 4.05-2.44 4.05v3.07c3.38 0 6.13-2.6 6.13-7.12v-26.51h4.89v33.38h3.69v-36.39h-12.27zm20.37 6.86h6.24c3.59 0 6.55-2.18 6.55-6.03v-9.98c0-3.85-2.96-5.98-6.55-5.98h-2.55v-14.4h-3.69zm6.24-18.97c1.56 0 2.86 1.09 2.86 2.96v9.98c0 1.92-1.3 3.01-2.86 3.01h-2.55v-15.96h2.55zm14.32 18.97h3.69v-17.16h5.67v17.16h3.69v-36.39h-3.69v16.22h-5.67v-16.22h-3.69zm21.15 0h3.59v-3.17l5.93-21.37h0.05v24.54h3.59v-36.39h-3.59v3.17l-5.93 21.37h-0.05v-24.54h-3.59zm21.25 0h3.69v-17.16h1.66l4.57 17.16h3.79l-5.61-18.66 5.46-17.68h-3.79l-4.47 16.17h-1.61v-16.22h-3.69zm-306.5 38.19c0 1.8-0.76 2.81-1.69 2.81v2.12c2.34 0 4.25-1.8 4.25-4.93v-18.36h3.38v23.11h2.56v-25.2h-8.5zm14.1 4.75h2.59l0.79-6.26h3.6l0.83 6.26h2.59l-3.53-25.2h-3.35zm5.19-22.24h0.07l1.58 13.89h-3.28zm10.82 22.24h4.32c2.48 0 4.54-1.51 4.54-4.18v-6.91c0-2.66-2.05-4.14-4.54-4.14h-1.76v-7.88h5.83v-2.09h-8.39zm4.32-13.14c1.08 0 1.98 0.76 1.98 2.05v6.91c0 1.33-0.9 2.09-1.98 2.09h-1.76v-11.05zm14.85-12.23c-2.48 0-4.46 1.51-4.46 4.18v17.24c0 2.66 1.98 4.14 4.46 4.14 2.52 0 4.54-1.48 4.54-4.14v-17.24c0-2.67-2.02-4.18-4.54-4.18zm-1.91 4.17c0-1.3 0.86-2.05 1.91-2.05 1.12 0 1.98 0.76 1.98 2.05v17.24c0 1.3-0.86 2.02-1.98 2.02-1.04 0-1.91-0.72-1.91-2.02zm12.51 21.2h2.56v-10.15h1.76c2.48 0 4.54-1.48 4.54-4.14v-6.73c0-2.66-2.05-4.18-4.54-4.18h-4.32zm2.55-12.24v-10.87h1.76c1.08 0 1.98 0.76 1.98 2.09v6.73c0 1.3-0.9 2.05-1.98 2.05zm10.8 12.24h2.59l0.79-6.26h3.6l0.83 6.26h2.59l-3.53-25.2h-3.35zm5.18-22.24h0.07l1.58 13.89h-3.28zm8.73-0.87h3.35v23.11h2.56v-23.11h3.31v-2.09h-9.21v2.09zm19.12-2.26c-2.48 0-4.46 1.51-4.46 4.18v17.24c0 2.66 1.98 4.14 4.46 4.14 2.52 0 4.54-1.48 4.54-4.14v-17.24c0-2.67-2.02-4.18-4.54-4.18zm-1.91 4.17c0-1.3 0.86-2.05 1.91-2.05 1.12 0 1.98 0.76 1.98 2.05v17.24c0 1.3-0.86 2.02-1.98 2.02-1.04 0-1.91-0.72-1.91-2.02zm12.51 21.2h2.56v-10.15h1.76c2.48 0 4.54-1.48 4.54-4.14v-6.73c0-2.66-2.05-4.18-4.54-4.18h-4.32zm2.56-12.24v-10.87h1.76c1.08 0 1.98 0.76 1.98 2.09v6.73c0 1.3-0.9 2.05-1.98 2.05zm12.27 12.24h2.48v-2.2l4.1-14.79h0.04v16.99h2.48v-25.2h-2.48v2.2l-4.1 14.79h-0.04v-16.99h-2.48zm19.96-10.8h1.73v10.8h2.56v-25.2h-4.32c-2.48 0-4.5 1.51-4.5 4.18v6.12c0 1.84 1.01 3.06 2.41 3.56l-3.06 11.34h2.59zm-0.03-2.08c-1.08 0-1.94-0.76-1.94-2.02v-6.12c0-1.33 0.86-2.09 1.94-2.09h1.76v10.22h-1.76z"/>
	
		<polygon points="295.2 104.3 284.5 130.8 180.9 385.9 116.8 394.7 275.6 119.4 289 96.26 321.2 40.48"/>
		<polygon points="510 421.8 470.8 371.1 199.2 408.4 170.1 412.4 101.2 421.8"/>
		<polygon points="499 367.2 541.3 421.8 514.7 375.7 509 365.8 495.7 342.7 337.3 68.34 313.2 127.5 481.5 344.7"/>
	
</g>
</svg>
