<svg fill="none" version="1.1" viewBox="0 0 15.714 18.857" xmlns="http://www.w3.org/2000/svg">
    <path d="m15.714 15.604c0-3.2288-0.798-6.9609-4.0145-6.9609-0.9944 0.96984-2.3449 1.5714-3.8426 1.5714s-2.8482-0.6016-3.8426-1.5714c-3.2165 0-4.0145 3.7321-4.0145 6.9609 1e-6 1.7924 1.1786 3.2534 2.615 3.2534l10.484-1e-4c1.4363 0 2.6149-1.4609 2.6149-3.2533zm-3.1429-10.89c0-2.6027-2.1116-4.7143-4.7142-4.7143-2.6027 1e-6 -4.7143 2.1116-4.7143 4.7143s2.1116 4.7143 4.7143 4.7143c2.6026 0 4.7142-2.1116 4.7142-4.7143z" fill="#f62221"/>
</svg>
