<svg version="1.1" viewBox="0 0 492 491.97" xmlns="http://www.w3.org/2000/svg">
    <g transform="translate(0 -.016)">
        <path d="m300.19 246 183.95-183.96c5.06-5.064 7.852-11.82 7.86-19.024 0-7.208-2.792-13.972-7.86-19.028l-16.12-16.116c-5.068-5.076-11.824-7.856-19.036-7.856-7.2 0-13.956 2.78-19.024 7.856l-183.95 183.95-183.96-183.95c-5.06-5.076-11.82-7.856-19.028-7.856-7.2 0-13.96 2.78-19.02 7.856l-16.128 16.116c-10.496 10.496-10.496 27.568 0 38.052l183.96 183.96-183.96 183.95c-5.064 5.072-7.852 11.828-7.852 19.032s2.788 13.96 7.852 19.028l16.124 16.116c5.06 5.072 11.824 7.856 19.02 7.856 7.208 0 13.968-2.784 19.028-7.856l183.96-183.95 183.95 183.95c5.068 5.072 11.824 7.856 19.024 7.856h8e-3c7.204 0 13.96-2.784 19.028-7.856l16.12-16.116c5.06-5.064 7.852-11.824 7.852-19.028s-2.792-13.96-7.852-19.028z" data-original="#000000"/>
    </g>
</svg>
