<svg fill="none" version="1.1" viewBox="0 0 22 17.286" xmlns="http://www.w3.org/2000/svg">
    <path d="m22 5.5737c-0.3683 0.40514-0.7857 0.76116-1.2277 1.0681-2.0502 1.3873-4.1127 2.7868-6.1138 4.2355-1.0312 0.7611-2.308 1.6942-3.6462 1.6942h-0.0246c-1.3381 0-2.6149-0.9331-3.6462-1.6942-2.0011-1.461-4.0636-2.8482-6.1016-4.2355-0.45424-0.30692-0.87165-0.66295-1.24-1.0681l1e-6 9.7478c1e-6 1.0803 0.88393 1.9643 1.9643 1.9643l18.071-1e-4c1.0804 0 1.9643-0.8839 1.9643-1.9642zm0-3.6094c0-1.0804-0.8962-1.9643-1.9643-1.9643l-18.071 4e-6c-1.3136 0-1.9643 1.0313-1.9643 2.2344 0 1.1172 1.24 2.5045 2.1116 3.0938 1.9029 1.3259 3.8304 2.6518 5.7333 3.99 0.79799 0.55248 2.1484 1.6819 3.1428 1.6819h0.0246c0.9944 0 2.3449-1.1294 3.1429-1.6819 1.9029-1.3382 3.8303-2.6641 5.7455-3.99 1.0803-0.74889 2.0993-1.9888 2.0993-3.3638z" fill="#f62221"/>
</svg>
