<?xml version="1.0" standalone="no"?>
<!DOCTYPE svg PUBLIC "-//W3C//DTD SVG 20010904//EN"
 "http://www.w3.org/TR/2001/REC-SVG-20010904/DTD/svg10.dtd">
<svg version="1.0" xmlns="http://www.w3.org/2000/svg"
 width="700.000000pt" height="700.000000pt" viewBox="0 0 700.000000 700.000000"
 preserveAspectRatio="xMidYMid meet">
<metadata>
Created by potrace 1.14, written by Peter Selinger 2001-2017
</metadata>
<g transform="translate(0.000000,700.000000) scale(0.100000,-0.100000)"
fill="#000000" stroke="none">
<path d="M3323 5483 c-478 -817 -1644 -2845 -1639 -2850 8 -9 577 70 591 82 7
5 85 186 173 400 88 215 325 790 526 1278 201 489 370 907 376 930 5 23 59
163 120 311 60 148 109 271 107 273 -2 2 -117 -189 -254 -424z"/>
<path d="M3631 5425 c-106 -259 -112 -277 -98 -298 8 -12 406 -521 885 -1132
l870 -1110 -30 -13 c-16 -7 -28 -16 -26 -21 5 -15 373 -490 376 -486 3 3
-1844 3314 -1857 3327 -4 4 -58 -116 -120 -267z"/>
<path d="M3217 2605 c-929 -128 -1691 -236 -1694 -239 -4 -3 850 -6 1896 -6
1453 0 1902 3 1899 12 -2 6 -83 114 -179 239 -160 210 -176 228 -204 227 -16
0 -790 -105 -1718 -233z"/>
<path d="M780 2307 c0 -4 27 -65 60 -135 295 -619 781 -1112 1395 -1412 396
-194 773 -286 1226 -297 242 -6 398 4 604 38 984 163 1855 853 2240 1775 22
52 16 45 -60 -81 -473 -780 -1289 -1327 -2190 -1469 -179 -28 -290 -36 -504
-36 -432 0 -777 64 -1166 217 -639 252 -1180 710 -1545 1310 -33 53 -60 94
-60 90z"/>
</g>
</svg>
